<svg width="1360" height="61" viewBox="0 0 1360 61" fill="none" xmlns="http://www.w3.org/2000/svg">
<path d="M1200 10C1200 7.23858 1202.24 5 1205 5H1355C1357.76 5 1360 7.23858 1360 10V52C1360 54.7614 1357.76 57 1355 57H1205C1202.24 57 1200 54.7614 1200 52V10Z" fill="white"/>
<path d="M1227.69 29.3906C1227.55 30.5938 1227.1 31.5234 1226.35 32.1797C1225.61 32.8307 1224.61 33.1562 1223.38 33.1562C1222.03 33.1562 1220.95 32.6745 1220.14 31.7109C1219.33 30.7474 1218.93 29.4583 1218.93 27.8438V26.75C1218.93 25.6927 1219.12 24.763 1219.49 23.9609C1219.87 23.1589 1220.41 22.5443 1221.1 22.1172C1221.79 21.6849 1222.6 21.4688 1223.51 21.4688C1224.72 21.4688 1225.68 21.8073 1226.41 22.4844C1227.14 23.1562 1227.57 24.0885 1227.69 25.2812H1226.18C1226.05 24.375 1225.77 23.7188 1225.33 23.3125C1224.9 22.9062 1224.29 22.7031 1223.51 22.7031C1222.55 22.7031 1221.8 23.0573 1221.25 23.7656C1220.71 24.474 1220.44 25.4818 1220.44 26.7891V27.8906C1220.44 29.125 1220.7 30.1068 1221.21 30.8359C1221.73 31.5651 1222.45 31.9297 1223.38 31.9297C1224.21 31.9297 1224.85 31.7422 1225.29 31.3672C1225.74 30.987 1226.03 30.3281 1226.18 29.3906H1227.69ZM1234.02 25.8438C1233.8 25.8073 1233.57 25.7891 1233.31 25.7891C1232.36 25.7891 1231.72 26.1927 1231.38 27V33H1229.94V24.5469H1231.34L1231.37 25.5234C1231.84 24.7682 1232.51 24.3906 1233.38 24.3906C1233.66 24.3906 1233.88 24.4271 1234.02 24.5V25.8438ZM1239.13 33.1562C1237.98 33.1562 1237.05 32.7812 1236.33 32.0312C1235.61 31.276 1235.25 30.2682 1235.25 29.0078V28.7422C1235.25 27.9036 1235.41 27.1562 1235.73 26.5C1236.05 25.8385 1236.5 25.3229 1237.07 24.9531C1237.65 24.5781 1238.28 24.3906 1238.95 24.3906C1240.05 24.3906 1240.9 24.7526 1241.51 25.4766C1242.12 26.2005 1242.43 27.237 1242.43 28.5859V29.1875H1236.7C1236.72 30.0208 1236.96 30.6953 1237.43 31.2109C1237.89 31.7214 1238.49 31.9766 1239.21 31.9766C1239.72 31.9766 1240.15 31.8724 1240.5 31.6641C1240.86 31.4557 1241.17 31.1797 1241.43 30.8359L1242.32 31.5234C1241.61 32.612 1240.55 33.1562 1239.13 33.1562ZM1238.95 25.5781C1238.37 25.5781 1237.88 25.7917 1237.48 26.2188C1237.08 26.6406 1236.84 27.2344 1236.75 28H1240.98V27.8906C1240.94 27.1562 1240.74 26.5885 1240.39 26.1875C1240.03 25.7812 1239.55 25.5781 1238.95 25.5781ZM1249.74 33C1249.66 32.8333 1249.59 32.5365 1249.54 32.1094C1248.87 32.8073 1248.07 33.1562 1247.14 33.1562C1246.3 33.1562 1245.62 32.9219 1245.08 32.4531C1244.55 31.9792 1244.28 31.3802 1244.28 30.6562C1244.28 29.776 1244.62 29.0938 1245.28 28.6094C1245.96 28.1198 1246.9 27.875 1248.11 27.875H1249.52V27.2109C1249.52 26.7057 1249.37 26.3047 1249.06 26.0078C1248.76 25.7057 1248.32 25.5547 1247.73 25.5547C1247.21 25.5547 1246.78 25.6849 1246.43 25.9453C1246.08 26.2057 1245.91 26.5208 1245.91 26.8906H1244.46C1244.46 26.4688 1244.6 26.0625 1244.9 25.6719C1245.2 25.276 1245.61 24.9635 1246.12 24.7344C1246.64 24.5052 1247.2 24.3906 1247.81 24.3906C1248.79 24.3906 1249.55 24.6354 1250.1 25.125C1250.66 25.6094 1250.94 26.2786 1250.96 27.1328V31.0234C1250.96 31.7995 1251.06 32.4167 1251.26 32.875V33H1249.74ZM1247.35 31.8984C1247.8 31.8984 1248.23 31.7812 1248.64 31.5469C1249.04 31.3125 1249.34 31.0078 1249.52 30.6328V28.8984H1248.39C1246.61 28.8984 1245.73 29.4167 1245.73 30.4531C1245.73 30.9062 1245.88 31.2604 1246.18 31.5156C1246.48 31.7708 1246.87 31.8984 1247.35 31.8984ZM1255.61 22.5V24.5469H1257.19V25.6641H1255.61V30.9062C1255.61 31.2448 1255.68 31.5 1255.82 31.6719C1255.96 31.8385 1256.2 31.9219 1256.54 31.9219C1256.71 31.9219 1256.94 31.8906 1257.23 31.8281V33C1256.85 33.1042 1256.48 33.1562 1256.12 33.1562C1255.47 33.1562 1254.98 32.9609 1254.66 32.5703C1254.33 32.1797 1254.16 31.625 1254.16 30.9062V25.6641H1252.63V24.5469H1254.16V22.5H1255.61ZM1262.81 33.1562C1261.67 33.1562 1260.73 32.7812 1260.01 32.0312C1259.3 31.276 1258.94 30.2682 1258.94 29.0078V28.7422C1258.94 27.9036 1259.09 27.1562 1259.41 26.5C1259.74 25.8385 1260.18 25.3229 1260.76 24.9531C1261.33 24.5781 1261.96 24.3906 1262.63 24.3906C1263.73 24.3906 1264.58 24.7526 1265.19 25.4766C1265.8 26.2005 1266.11 27.237 1266.11 28.5859V29.1875H1260.38C1260.4 30.0208 1260.64 30.6953 1261.11 31.2109C1261.58 31.7214 1262.17 31.9766 1262.89 31.9766C1263.4 31.9766 1263.83 31.8724 1264.19 31.6641C1264.54 31.4557 1264.85 31.1797 1265.12 30.8359L1266 31.5234C1265.29 32.612 1264.23 33.1562 1262.81 33.1562ZM1262.63 25.5781C1262.05 25.5781 1261.56 25.7917 1261.16 26.2188C1260.77 26.6406 1260.52 27.2344 1260.43 28H1264.66V27.8906C1264.62 27.1562 1264.42 26.5885 1264.07 26.1875C1263.71 25.7812 1263.24 25.5781 1262.63 25.5781ZM1277.81 33C1277.73 32.8333 1277.66 32.5365 1277.61 32.1094C1276.94 32.8073 1276.14 33.1562 1275.21 33.1562C1274.37 33.1562 1273.69 32.9219 1273.15 32.4531C1272.62 31.9792 1272.35 31.3802 1272.35 30.6562C1272.35 29.776 1272.69 29.0938 1273.35 28.6094C1274.03 28.1198 1274.97 27.875 1276.18 27.875H1277.59V27.2109C1277.59 26.7057 1277.44 26.3047 1277.14 26.0078C1276.83 25.7057 1276.39 25.5547 1275.8 25.5547C1275.28 25.5547 1274.85 25.6849 1274.5 25.9453C1274.15 26.2057 1273.98 26.5208 1273.98 26.8906H1272.53C1272.53 26.4688 1272.67 26.0625 1272.97 25.6719C1273.27 25.276 1273.68 24.9635 1274.19 24.7344C1274.71 24.5052 1275.27 24.3906 1275.89 24.3906C1276.86 24.3906 1277.62 24.6354 1278.17 25.125C1278.73 25.6094 1279.01 26.2786 1279.03 27.1328V31.0234C1279.03 31.7995 1279.13 32.4167 1279.33 32.875V33H1277.81ZM1275.42 31.8984C1275.87 31.8984 1276.3 31.7812 1276.71 31.5469C1277.11 31.3125 1277.41 31.0078 1277.59 30.6328V28.8984H1276.46C1274.68 28.8984 1273.8 29.4167 1273.8 30.4531C1273.8 30.9062 1273.95 31.2604 1274.25 31.5156C1274.55 31.7708 1274.94 31.8984 1275.42 31.8984ZM1289.5 31.9766C1290.01 31.9766 1290.46 31.8203 1290.85 31.5078C1291.24 31.1953 1291.45 30.8047 1291.49 30.3359H1292.86C1292.83 30.8203 1292.67 31.2812 1292.36 31.7188C1292.05 32.1562 1291.64 32.5052 1291.12 32.7656C1290.61 33.026 1290.07 33.1562 1289.5 33.1562C1288.35 33.1562 1287.43 32.7734 1286.75 32.0078C1286.07 31.237 1285.73 30.1849 1285.73 28.8516V28.6094C1285.73 27.7865 1285.88 27.0547 1286.19 26.4141C1286.49 25.7734 1286.92 25.276 1287.48 24.9219C1288.05 24.5677 1288.72 24.3906 1289.49 24.3906C1290.44 24.3906 1291.23 24.6745 1291.85 25.2422C1292.48 25.8099 1292.82 26.5469 1292.86 27.4531H1291.49C1291.45 26.9062 1291.24 26.4583 1290.87 26.1094C1290.5 25.7552 1290.04 25.5781 1289.49 25.5781C1288.76 25.5781 1288.19 25.8438 1287.78 26.375C1287.38 26.901 1287.18 27.6641 1287.18 28.6641V28.9375C1287.18 29.9115 1287.38 30.6615 1287.78 31.1875C1288.18 31.7135 1288.75 31.9766 1289.5 31.9766ZM1294.52 28.6953C1294.52 27.8672 1294.68 27.1224 1295 26.4609C1295.33 25.7995 1295.79 25.2891 1296.36 24.9297C1296.95 24.5703 1297.61 24.3906 1298.36 24.3906C1299.51 24.3906 1300.44 24.7891 1301.15 25.5859C1301.86 26.3828 1302.22 27.4427 1302.22 28.7656V28.8672C1302.22 29.6901 1302.06 30.4297 1301.74 31.0859C1301.43 31.737 1300.98 32.2448 1300.39 32.6094C1299.8 32.974 1299.13 33.1562 1298.37 33.1562C1297.23 33.1562 1296.3 32.7578 1295.58 31.9609C1294.87 31.1641 1294.52 30.1094 1294.52 28.7969V28.6953ZM1295.97 28.8672C1295.97 29.8047 1296.19 30.5573 1296.62 31.125C1297.06 31.6927 1297.64 31.9766 1298.37 31.9766C1299.11 31.9766 1299.69 31.6901 1300.12 31.1172C1300.55 30.5391 1300.77 29.7318 1300.77 28.6953C1300.77 27.7682 1300.55 27.0182 1300.11 26.4453C1299.67 25.8672 1299.09 25.5781 1298.36 25.5781C1297.64 25.5781 1297.07 25.862 1296.63 26.4297C1296.19 26.9974 1295.97 27.8099 1295.97 28.8672ZM1309.67 32.1641C1309.1 32.8255 1308.28 33.1562 1307.19 33.1562C1306.29 33.1562 1305.6 32.8958 1305.13 32.375C1304.66 31.849 1304.42 31.0729 1304.42 30.0469V24.5469H1305.86V30.0078C1305.86 31.2891 1306.38 31.9297 1307.42 31.9297C1308.53 31.9297 1309.26 31.5182 1309.63 30.6953V24.5469H1311.07V33H1309.7L1309.67 32.1641ZM1317.78 25.8438C1317.56 25.8073 1317.33 25.7891 1317.07 25.7891C1316.12 25.7891 1315.48 26.1927 1315.14 27V33H1313.7V24.5469H1315.1L1315.13 25.5234C1315.6 24.7682 1316.27 24.3906 1317.14 24.3906C1317.42 24.3906 1317.64 24.4271 1317.78 24.5V25.8438ZM1324.46 30.7578C1324.46 30.3672 1324.31 30.0651 1324.01 29.8516C1323.72 29.6328 1323.21 29.4453 1322.48 29.2891C1321.75 29.1328 1321.17 28.9453 1320.73 28.7266C1320.31 28.5078 1319.99 28.2474 1319.78 27.9453C1319.58 27.6432 1319.48 27.2839 1319.48 26.8672C1319.48 26.1745 1319.77 25.5885 1320.35 25.1094C1320.94 24.6302 1321.69 24.3906 1322.6 24.3906C1323.56 24.3906 1324.33 24.638 1324.93 25.1328C1325.53 25.6276 1325.83 26.2604 1325.83 27.0312H1324.37C1324.37 26.6354 1324.2 26.2943 1323.87 26.0078C1323.53 25.7214 1323.11 25.5781 1322.6 25.5781C1322.07 25.5781 1321.66 25.6927 1321.37 25.9219C1321.07 26.151 1320.92 26.4505 1320.92 26.8203C1320.92 27.1693 1321.06 27.4323 1321.33 27.6094C1321.61 27.7865 1322.11 27.9557 1322.83 28.1172C1323.55 28.2786 1324.14 28.4714 1324.58 28.6953C1325.03 28.9193 1325.36 29.1901 1325.58 29.5078C1325.8 29.8203 1325.91 30.2031 1325.91 30.6562C1325.91 31.4115 1325.6 32.0182 1325 32.4766C1324.39 32.9297 1323.61 33.1562 1322.65 33.1562C1321.97 33.1562 1321.37 33.0365 1320.85 32.7969C1320.33 32.5573 1319.92 32.224 1319.62 31.7969C1319.33 31.3646 1319.19 30.8984 1319.19 30.3984H1320.63C1320.66 30.8828 1320.85 31.2682 1321.21 31.5547C1321.57 31.8359 1322.05 31.9766 1322.65 31.9766C1323.19 31.9766 1323.63 31.8672 1323.96 31.6484C1324.29 31.4245 1324.46 31.1276 1324.46 30.7578ZM1331.72 33.1562C1330.57 33.1562 1329.64 32.7812 1328.92 32.0312C1328.2 31.276 1327.84 30.2682 1327.84 29.0078V28.7422C1327.84 27.9036 1328 27.1562 1328.32 26.5C1328.64 25.8385 1329.09 25.3229 1329.66 24.9531C1330.24 24.5781 1330.86 24.3906 1331.54 24.3906C1332.64 24.3906 1333.49 24.7526 1334.1 25.4766C1334.71 26.2005 1335.01 27.237 1335.01 28.5859V29.1875H1329.29C1329.31 30.0208 1329.55 30.6953 1330.01 31.2109C1330.48 31.7214 1331.08 31.9766 1331.79 31.9766C1332.3 31.9766 1332.74 31.8724 1333.09 31.6641C1333.45 31.4557 1333.75 31.1797 1334.02 30.8359L1334.9 31.5234C1334.2 32.612 1333.13 33.1562 1331.72 33.1562ZM1331.54 25.5781C1330.95 25.5781 1330.46 25.7917 1330.07 26.2188C1329.67 26.6406 1329.43 27.2344 1329.33 28H1333.57V27.8906C1333.53 27.1562 1333.33 26.5885 1332.97 26.1875C1332.62 25.7812 1332.14 25.5781 1331.54 25.5781Z" fill="#161320"/>
<path d="M316.594 28.9766H311.82V34H310.32V22.625H317.367V23.8594H311.82V27.75H316.594V28.9766ZM320.928 34H319.483V25.5469H320.928V34ZM319.365 23.3047C319.365 23.0703 319.436 22.8724 319.576 22.7109C319.722 22.5495 319.936 22.4688 320.217 22.4688C320.498 22.4688 320.712 22.5495 320.858 22.7109C321.003 22.8724 321.076 23.0703 321.076 23.3047C321.076 23.5391 321.003 23.7344 320.858 23.8906C320.712 24.0469 320.498 24.125 320.217 24.125C319.936 24.125 319.722 24.0469 319.576 23.8906C319.436 23.7344 319.365 23.5391 319.365 23.3047ZM325.035 25.5469L325.082 26.6094C325.728 25.7969 326.572 25.3906 327.613 25.3906C329.4 25.3906 330.301 26.3984 330.317 28.4141V34H328.871V28.4062C328.866 27.7969 328.725 27.3464 328.449 27.0547C328.179 26.763 327.754 26.6172 327.176 26.6172C326.707 26.6172 326.296 26.7422 325.942 26.9922C325.587 27.2422 325.311 27.5703 325.113 27.9766V34H323.668V25.5469H325.035ZM332.565 29.7031C332.565 28.4062 332.872 27.3646 333.487 26.5781C334.101 25.7865 334.906 25.3906 335.901 25.3906C336.89 25.3906 337.674 25.7292 338.252 26.4062V22H339.698V34H338.369L338.299 33.0938C337.721 33.8021 336.916 34.1562 335.885 34.1562C334.906 34.1562 334.106 33.7552 333.487 32.9531C332.872 32.151 332.565 31.1042 332.565 29.8125V29.7031ZM334.01 29.8672C334.01 30.8255 334.208 31.5755 334.604 32.1172C335 32.6589 335.546 32.9297 336.244 32.9297C337.161 32.9297 337.83 32.5182 338.252 31.6953V27.8125C337.82 27.0156 337.156 26.6172 336.26 26.6172C335.552 26.6172 335 26.8906 334.604 27.4375C334.208 27.9844 334.01 28.7943 334.01 29.8672ZM351.975 34C351.892 33.8333 351.824 33.5365 351.772 33.1094C351.1 33.8073 350.298 34.1562 349.366 34.1562C348.532 34.1562 347.847 33.9219 347.311 33.4531C346.78 32.9792 346.514 32.3802 346.514 31.6562C346.514 30.776 346.847 30.0938 347.514 29.6094C348.186 29.1198 349.129 28.875 350.342 28.875H351.748V28.2109C351.748 27.7057 351.597 27.3047 351.295 27.0078C350.993 26.7057 350.548 26.5547 349.959 26.5547C349.444 26.5547 349.011 26.6849 348.662 26.9453C348.314 27.2057 348.139 27.5208 348.139 27.8906H346.686C346.686 27.4688 346.834 27.0625 347.131 26.6719C347.433 26.276 347.84 25.9635 348.35 25.7344C348.866 25.5052 349.431 25.3906 350.045 25.3906C351.019 25.3906 351.782 25.6354 352.334 26.125C352.886 26.6094 353.173 27.2786 353.194 28.1328V32.0234C353.194 32.7995 353.293 33.4167 353.491 33.875V34H351.975ZM349.577 32.8984C350.03 32.8984 350.459 32.7812 350.866 32.5469C351.272 32.3125 351.566 32.0078 351.748 31.6328V29.8984H350.616C348.845 29.8984 347.959 30.4167 347.959 31.4531C347.959 31.9062 348.11 32.2604 348.412 32.5156C348.715 32.7708 349.103 32.8984 349.577 32.8984ZM363.659 32.9766C364.174 32.9766 364.625 32.8203 365.01 32.5078C365.396 32.1953 365.609 31.8047 365.651 31.3359H367.018C366.992 31.8203 366.825 32.2812 366.518 32.7188C366.211 33.1562 365.799 33.5052 365.284 33.7656C364.773 34.026 364.232 34.1562 363.659 34.1562C362.508 34.1562 361.591 33.7734 360.909 33.0078C360.232 32.237 359.893 31.1849 359.893 29.8516V29.6094C359.893 28.7865 360.044 28.0547 360.346 27.4141C360.648 26.7734 361.081 26.276 361.643 25.9219C362.211 25.5677 362.88 25.3906 363.651 25.3906C364.599 25.3906 365.385 25.6745 366.01 26.2422C366.641 26.8099 366.976 27.5469 367.018 28.4531H365.651C365.609 27.9062 365.401 27.4583 365.026 27.1094C364.656 26.7552 364.198 26.5781 363.651 26.5781C362.917 26.5781 362.346 26.8438 361.94 27.375C361.539 27.901 361.338 28.6641 361.338 29.6641V29.9375C361.338 30.9115 361.539 31.6615 361.94 32.1875C362.341 32.7135 362.914 32.9766 363.659 32.9766ZM368.68 29.6953C368.68 28.8672 368.842 28.1224 369.165 27.4609C369.493 26.7995 369.946 26.2891 370.524 25.9297C371.107 25.5703 371.771 25.3906 372.516 25.3906C373.667 25.3906 374.597 25.7891 375.305 26.5859C376.019 27.3828 376.376 28.4427 376.376 29.7656V29.8672C376.376 30.6901 376.217 31.4297 375.899 32.0859C375.587 32.737 375.136 33.2448 374.548 33.6094C373.964 33.974 373.292 34.1562 372.532 34.1562C371.386 34.1562 370.456 33.7578 369.743 32.9609C369.034 32.1641 368.68 31.1094 368.68 29.7969V29.6953ZM370.133 29.8672C370.133 30.8047 370.35 31.5573 370.782 32.125C371.219 32.6927 371.803 32.9766 372.532 32.9766C373.266 32.9766 373.85 32.6901 374.282 32.1172C374.714 31.5391 374.93 30.7318 374.93 29.6953C374.93 28.7682 374.709 28.0182 374.266 27.4453C373.829 26.8672 373.245 26.5781 372.516 26.5781C371.803 26.5781 371.227 26.862 370.79 27.4297C370.352 27.9974 370.133 28.8099 370.133 29.8672ZM383.827 33.1641C383.264 33.8255 382.439 34.1562 381.35 34.1562C380.449 34.1562 379.762 33.8958 379.288 33.375C378.819 32.849 378.582 32.0729 378.577 31.0469V25.5469H380.022V31.0078C380.022 32.2891 380.543 32.9297 381.585 32.9297C382.689 32.9297 383.423 32.5182 383.788 31.6953V25.5469H385.233V34H383.858L383.827 33.1641ZM391.942 26.8438C391.723 26.8073 391.486 26.7891 391.231 26.7891C390.283 26.7891 389.64 27.1927 389.302 28V34H387.856V25.5469H389.262L389.286 26.5234C389.76 25.7682 390.432 25.3906 391.302 25.3906C391.583 25.3906 391.796 25.4271 391.942 25.5V26.8438ZM398.62 31.7578C398.62 31.3672 398.472 31.0651 398.175 30.8516C397.883 30.6328 397.37 30.4453 396.636 30.2891C395.906 30.1328 395.326 29.9453 394.893 29.7266C394.466 29.5078 394.149 29.2474 393.94 28.9453C393.737 28.6432 393.636 28.2839 393.636 27.8672C393.636 27.1745 393.927 26.5885 394.511 26.1094C395.099 25.6302 395.849 25.3906 396.761 25.3906C397.719 25.3906 398.495 25.638 399.089 26.1328C399.688 26.6276 399.987 27.2604 399.987 28.0312H398.534C398.534 27.6354 398.365 27.2943 398.026 27.0078C397.693 26.7214 397.271 26.5781 396.761 26.5781C396.235 26.5781 395.823 26.6927 395.526 26.9219C395.229 27.151 395.081 27.4505 395.081 27.8203C395.081 28.1693 395.219 28.4323 395.495 28.6094C395.771 28.7865 396.268 28.9557 396.987 29.1172C397.711 29.2786 398.297 29.4714 398.745 29.6953C399.193 29.9193 399.524 30.1901 399.737 30.5078C399.956 30.8203 400.065 31.2031 400.065 31.6562C400.065 32.4115 399.763 33.0182 399.159 33.4766C398.555 33.9297 397.771 34.1562 396.808 34.1562C396.13 34.1562 395.531 34.0365 395.011 33.7969C394.49 33.5573 394.081 33.224 393.784 32.7969C393.492 32.3646 393.347 31.8984 393.347 31.3984H394.792C394.818 31.8828 395.011 32.2682 395.37 32.5547C395.735 32.8359 396.214 32.9766 396.808 32.9766C397.354 32.9766 397.792 32.8672 398.12 32.6484C398.453 32.4245 398.62 32.1276 398.62 31.7578ZM405.876 34.1562C404.73 34.1562 403.798 33.7812 403.079 33.0312C402.36 32.276 402.001 31.2682 402.001 30.0078V29.7422C402.001 28.9036 402.16 28.1562 402.478 27.5C402.8 26.8385 403.248 26.3229 403.821 25.9531C404.399 25.5781 405.024 25.3906 405.696 25.3906C406.795 25.3906 407.649 25.7526 408.259 26.4766C408.868 27.2005 409.173 28.237 409.173 29.5859V30.1875H403.446C403.467 31.0208 403.709 31.6953 404.173 32.2109C404.642 32.7214 405.235 32.9766 405.954 32.9766C406.464 32.9766 406.897 32.8724 407.251 32.6641C407.605 32.4557 407.915 32.1797 408.181 31.8359L409.063 32.5234C408.355 33.612 407.293 34.1562 405.876 34.1562ZM405.696 26.5781C405.113 26.5781 404.623 26.7917 404.228 27.2188C403.832 27.6406 403.587 28.2344 403.493 29H407.728V28.8906C407.686 28.1562 407.488 27.5885 407.134 27.1875C406.78 26.7812 406.3 26.5781 405.696 26.5781Z" fill="black"/>
<path d="M1120.67 28.9297C1119.39 28.5599 1118.45 28.1068 1117.86 27.5703C1117.28 27.0286 1116.98 26.362 1116.98 25.5703C1116.98 24.6745 1117.34 23.9349 1118.05 23.3516C1118.77 22.763 1119.71 22.4688 1120.85 22.4688C1121.63 22.4688 1122.33 22.6198 1122.94 22.9219C1123.55 23.224 1124.03 23.6406 1124.36 24.1719C1124.7 24.7031 1124.87 25.2839 1124.87 25.9141H1123.36C1123.36 25.2266 1123.14 24.6875 1122.7 24.2969C1122.27 23.901 1121.65 23.7031 1120.85 23.7031C1120.11 23.7031 1119.53 23.8672 1119.12 24.1953C1118.71 24.5182 1118.5 24.9688 1118.5 25.5469C1118.5 26.0104 1118.7 26.4036 1119.09 26.7266C1119.48 27.0443 1120.15 27.3359 1121.09 27.6016C1122.04 27.8672 1122.78 28.1615 1123.31 28.4844C1123.85 28.8021 1124.24 29.1745 1124.5 29.6016C1124.76 30.0286 1124.89 30.5312 1124.89 31.1094C1124.89 32.0312 1124.53 32.7708 1123.81 33.3281C1123.09 33.8802 1122.13 34.1562 1120.93 34.1562C1120.15 34.1562 1119.42 34.0078 1118.74 33.7109C1118.07 33.4089 1117.54 32.9974 1117.17 32.4766C1116.81 31.9557 1116.62 31.3646 1116.62 30.7031H1118.13C1118.13 31.3906 1118.39 31.9349 1118.89 32.3359C1119.4 32.7318 1120.08 32.9297 1120.93 32.9297C1121.72 32.9297 1122.33 32.7682 1122.75 32.4453C1123.17 32.1224 1123.38 31.6823 1123.38 31.125C1123.38 30.5677 1123.19 30.138 1122.8 29.8359C1122.41 29.5286 1121.7 29.2266 1120.67 28.9297ZM1128.58 34H1127.14V25.5469H1128.58V34ZM1127.02 23.3047C1127.02 23.0703 1127.09 22.8724 1127.23 22.7109C1127.38 22.5495 1127.59 22.4688 1127.87 22.4688C1128.15 22.4688 1128.37 22.5495 1128.51 22.7109C1128.66 22.8724 1128.73 23.0703 1128.73 23.3047C1128.73 23.5391 1128.66 23.7344 1128.51 23.8906C1128.37 24.0469 1128.15 24.125 1127.87 24.125C1127.59 24.125 1127.38 24.0469 1127.23 23.8906C1127.09 23.7344 1127.02 23.5391 1127.02 23.3047ZM1130.98 29.7031C1130.98 28.3854 1131.29 27.3385 1131.89 26.5625C1132.5 25.7812 1133.31 25.3906 1134.32 25.3906C1135.35 25.3906 1136.15 25.7552 1136.73 26.4844L1136.8 25.5469H1138.12V33.7969C1138.12 34.8906 1137.8 35.7526 1137.14 36.3828C1136.5 37.013 1135.63 37.3281 1134.54 37.3281C1133.93 37.3281 1133.33 37.1979 1132.75 36.9375C1132.16 36.6771 1131.72 36.3203 1131.41 35.8672L1132.16 35C1132.78 35.7656 1133.54 36.1484 1134.43 36.1484C1135.14 36.1484 1135.68 35.9505 1136.07 35.5547C1136.47 35.1589 1136.67 34.6016 1136.67 33.8828V33.1562C1136.09 33.8229 1135.3 34.1562 1134.3 34.1562C1133.31 34.1562 1132.51 33.7578 1131.89 32.9609C1131.29 32.1641 1130.98 31.0781 1130.98 29.7031ZM1132.43 29.8672C1132.43 30.8203 1132.63 31.5703 1133.02 32.1172C1133.41 32.6589 1133.96 32.9297 1134.66 32.9297C1135.57 32.9297 1136.24 32.5156 1136.67 31.6875V27.8281C1136.23 27.0208 1135.56 26.6172 1134.68 26.6172C1133.97 26.6172 1133.42 26.8906 1133.03 27.4375C1132.63 27.9844 1132.43 28.7943 1132.43 29.8672ZM1142.1 25.5469L1142.14 26.6094C1142.79 25.7969 1143.63 25.3906 1144.67 25.3906C1146.46 25.3906 1147.36 26.3984 1147.38 28.4141V34H1145.93V28.4062C1145.93 27.7969 1145.79 27.3464 1145.51 27.0547C1145.24 26.763 1144.81 26.6172 1144.24 26.6172C1143.77 26.6172 1143.36 26.7422 1143 26.9922C1142.65 27.2422 1142.37 27.5703 1142.17 27.9766V34H1140.73V25.5469H1142.1ZM1156.2 34H1154.7V22.625H1156.2V34ZM1160.51 25.5469L1160.56 26.6094C1161.2 25.7969 1162.05 25.3906 1163.09 25.3906C1164.88 25.3906 1165.78 26.3984 1165.79 28.4141V34H1164.35V28.4062C1164.34 27.7969 1164.2 27.3464 1163.93 27.0547C1163.66 26.763 1163.23 26.6172 1162.65 26.6172C1162.18 26.6172 1161.77 26.7422 1161.42 26.9922C1161.06 27.2422 1160.79 27.5703 1160.59 27.9766V34H1159.15V25.5469H1160.51Z" fill="black"/>
<path d="M206.82 29.5469V34H205.32V22.625H209.516C210.76 22.625 211.734 22.9427 212.438 23.5781C213.146 24.2135 213.5 25.0547 213.5 26.1016C213.5 27.2057 213.154 28.0573 212.461 28.6562C211.773 29.25 210.786 29.5469 209.5 29.5469H206.82ZM206.82 28.3203H209.516C210.318 28.3203 210.932 28.1328 211.359 27.7578C211.786 27.3776 212 26.8307 212 26.1172C212 25.4401 211.786 24.8984 211.359 24.4922C210.932 24.0859 210.346 23.875 209.602 23.8594H206.82V28.3203ZM219.693 26.8438C219.475 26.8073 219.238 26.7891 218.983 26.7891C218.035 26.7891 217.391 27.1927 217.053 28V34H215.608V25.5469H217.014L217.037 26.5234C217.511 25.7682 218.183 25.3906 219.053 25.3906C219.334 25.3906 219.548 25.4271 219.693 25.5V26.8438ZM223.02 34H221.574V25.5469H223.02V34ZM221.457 23.3047C221.457 23.0703 221.528 22.8724 221.668 22.7109C221.814 22.5495 222.028 22.4688 222.309 22.4688C222.59 22.4688 222.804 22.5495 222.949 22.7109C223.095 22.8724 223.168 23.0703 223.168 23.3047C223.168 23.5391 223.095 23.7344 222.949 23.8906C222.804 24.0469 222.59 24.125 222.309 24.125C222.028 24.125 221.814 24.0469 221.668 23.8906C221.528 23.7344 221.457 23.5391 221.457 23.3047ZM229.151 32.9766C229.666 32.9766 230.117 32.8203 230.502 32.5078C230.888 32.1953 231.101 31.8047 231.143 31.3359H232.51C232.484 31.8203 232.317 32.2812 232.01 32.7188C231.703 33.1562 231.291 33.5052 230.776 33.7656C230.265 34.026 229.724 34.1562 229.151 34.1562C228 34.1562 227.083 33.7734 226.401 33.0078C225.724 32.237 225.385 31.1849 225.385 29.8516V29.6094C225.385 28.7865 225.536 28.0547 225.838 27.4141C226.14 26.7734 226.573 26.276 227.135 25.9219C227.703 25.5677 228.372 25.3906 229.143 25.3906C230.091 25.3906 230.877 25.6745 231.502 26.2422C232.132 26.8099 232.468 27.5469 232.51 28.4531H231.143C231.101 27.9062 230.893 27.4583 230.518 27.1094C230.148 26.7552 229.69 26.5781 229.143 26.5781C228.408 26.5781 227.838 26.8438 227.432 27.375C227.031 27.901 226.83 28.6641 226.83 29.6641V29.9375C226.83 30.9115 227.031 31.6615 227.432 32.1875C227.833 32.7135 228.406 32.9766 229.151 32.9766ZM236.125 34H234.68V25.5469H236.125V34ZM234.563 23.3047C234.563 23.0703 234.633 22.8724 234.774 22.7109C234.92 22.5495 235.133 22.4688 235.414 22.4688C235.696 22.4688 235.909 22.5495 236.055 22.7109C236.201 22.8724 236.274 23.0703 236.274 23.3047C236.274 23.5391 236.201 23.7344 236.055 23.8906C235.909 24.0469 235.696 24.125 235.414 24.125C235.133 24.125 234.92 24.0469 234.774 23.8906C234.633 23.7344 234.563 23.5391 234.563 23.3047ZM240.233 25.5469L240.28 26.6094C240.926 25.7969 241.769 25.3906 242.811 25.3906C244.597 25.3906 245.498 26.3984 245.514 28.4141V34H244.069V28.4062C244.064 27.7969 243.923 27.3464 243.647 27.0547C243.376 26.763 242.952 26.6172 242.373 26.6172C241.905 26.6172 241.493 26.7422 241.139 26.9922C240.785 27.2422 240.509 27.5703 240.311 27.9766V34H238.866V25.5469H240.233ZM247.77 29.7031C247.77 28.3854 248.075 27.3385 248.684 26.5625C249.293 25.7812 250.101 25.3906 251.106 25.3906C252.137 25.3906 252.942 25.7552 253.52 26.4844L253.59 25.5469H254.911V33.7969C254.911 34.8906 254.585 35.7526 253.934 36.3828C253.288 37.013 252.418 37.3281 251.325 37.3281C250.715 37.3281 250.119 37.1979 249.536 36.9375C248.952 36.6771 248.507 36.3203 248.2 35.8672L248.95 35C249.569 35.7656 250.327 36.1484 251.223 36.1484C251.926 36.1484 252.473 35.9505 252.864 35.5547C253.26 35.1589 253.458 34.6016 253.458 33.8828V33.1562C252.879 33.8229 252.09 34.1562 251.09 34.1562C250.101 34.1562 249.299 33.7578 248.684 32.9609C248.075 32.1641 247.77 31.0781 247.77 29.7031ZM249.223 29.8672C249.223 30.8203 249.418 31.5703 249.809 32.1172C250.2 32.6589 250.747 32.9297 251.45 32.9297C252.361 32.9297 253.03 32.5156 253.458 31.6875V27.8281C253.015 27.0208 252.351 26.6172 251.465 26.6172C250.762 26.6172 250.213 26.8906 249.817 27.4375C249.421 27.9844 249.223 28.7943 249.223 29.8672Z" fill="black"/>
<path d="M473.594 28.9766H468.82V34H467.32V22.625H474.367V23.8594H468.82V27.75H473.594V28.9766ZM475.803 29.6953C475.803 28.8672 475.964 28.1224 476.287 27.4609C476.615 26.7995 477.068 26.2891 477.647 25.9297C478.23 25.5703 478.894 25.3906 479.639 25.3906C480.79 25.3906 481.719 25.7891 482.428 26.5859C483.141 27.3828 483.498 28.4427 483.498 29.7656V29.8672C483.498 30.6901 483.339 31.4297 483.022 32.0859C482.709 32.737 482.259 33.2448 481.67 33.6094C481.087 33.974 480.415 34.1562 479.654 34.1562C478.509 34.1562 477.579 33.7578 476.865 32.9609C476.157 32.1641 475.803 31.1094 475.803 29.7969V29.6953ZM477.256 29.8672C477.256 30.8047 477.472 31.5573 477.904 32.125C478.342 32.6927 478.925 32.9766 479.654 32.9766C480.389 32.9766 480.972 32.6901 481.404 32.1172C481.837 31.5391 482.053 30.7318 482.053 29.6953C482.053 28.7682 481.831 28.0182 481.389 27.4453C480.951 26.8672 480.368 26.5781 479.639 26.5781C478.925 26.5781 478.35 26.862 477.912 27.4297C477.475 27.9974 477.256 28.8099 477.256 29.8672ZM489.817 26.8438C489.598 26.8073 489.361 26.7891 489.106 26.7891C488.158 26.7891 487.514 27.1927 487.176 28V34H485.731V25.5469H487.137L487.16 26.5234C487.634 25.7682 488.306 25.3906 489.176 25.3906C489.457 25.3906 489.671 25.4271 489.817 25.5V26.8438ZM504.555 30.3906C504.414 31.5938 503.969 32.5234 503.219 33.1797C502.474 33.8307 501.482 34.1562 500.243 34.1562C498.899 34.1562 497.821 33.6745 497.008 32.7109C496.201 31.7474 495.797 30.4583 495.797 28.8438V27.75C495.797 26.6927 495.985 25.763 496.36 24.9609C496.74 24.1589 497.276 23.5443 497.969 23.1172C498.662 22.6849 499.464 22.4688 500.375 22.4688C501.584 22.4688 502.552 22.8073 503.282 23.4844C504.011 24.1562 504.435 25.0885 504.555 26.2812H503.047C502.917 25.375 502.633 24.7188 502.196 24.3125C501.763 23.9062 501.157 23.7031 500.375 23.7031C499.417 23.7031 498.664 24.0573 498.118 24.7656C497.576 25.474 497.305 26.4818 497.305 27.7891V28.8906C497.305 30.125 497.563 31.1068 498.078 31.8359C498.594 32.5651 499.315 32.9297 500.243 32.9297C501.076 32.9297 501.714 32.7422 502.157 32.3672C502.604 31.987 502.901 31.3281 503.047 30.3906H504.555ZM510.889 26.8438C510.67 26.8073 510.433 26.7891 510.178 26.7891C509.23 26.7891 508.587 27.1927 508.248 28V34H506.803V25.5469H508.209L508.233 26.5234C508.707 25.7682 509.379 25.3906 510.248 25.3906C510.53 25.3906 510.743 25.4271 510.889 25.5V26.8438ZM515.997 34.1562C514.851 34.1562 513.918 33.7812 513.2 33.0312C512.481 32.276 512.122 31.2682 512.122 30.0078V29.7422C512.122 28.9036 512.28 28.1562 512.598 27.5C512.921 26.8385 513.369 26.3229 513.942 25.9531C514.52 25.5781 515.145 25.3906 515.817 25.3906C516.916 25.3906 517.77 25.7526 518.379 26.4766C518.989 27.2005 519.293 28.237 519.293 29.5859V30.1875H513.567C513.588 31.0208 513.83 31.6953 514.293 32.2109C514.762 32.7214 515.356 32.9766 516.075 32.9766C516.585 32.9766 517.017 32.8724 517.372 32.6641C517.726 32.4557 518.036 32.1797 518.301 31.8359L519.184 32.5234C518.476 33.612 517.413 34.1562 515.997 34.1562ZM515.817 26.5781C515.234 26.5781 514.744 26.7917 514.348 27.2188C513.952 27.6406 513.708 28.2344 513.614 29H517.848V28.8906C517.806 28.1562 517.609 27.5885 517.254 27.1875C516.9 26.7812 516.421 26.5781 515.817 26.5781ZM526.612 34C526.529 33.8333 526.461 33.5365 526.409 33.1094C525.737 33.8073 524.935 34.1562 524.002 34.1562C523.169 34.1562 522.484 33.9219 521.948 33.4531C521.417 32.9792 521.151 32.3802 521.151 31.6562C521.151 30.776 521.484 30.0938 522.151 29.6094C522.823 29.1198 523.766 28.875 524.979 28.875H526.385V28.2109C526.385 27.7057 526.234 27.3047 525.932 27.0078C525.63 26.7057 525.185 26.5547 524.596 26.5547C524.081 26.5547 523.648 26.6849 523.299 26.9453C522.95 27.2057 522.776 27.5208 522.776 27.8906H521.323C521.323 27.4688 521.471 27.0625 521.768 26.6719C522.07 26.276 522.476 25.9635 522.987 25.7344C523.502 25.5052 524.068 25.3906 524.682 25.3906C525.656 25.3906 526.419 25.6354 526.971 26.125C527.523 26.6094 527.81 27.2786 527.831 28.1328V32.0234C527.831 32.7995 527.93 33.4167 528.127 33.875V34H526.612ZM524.213 32.8984C524.667 32.8984 525.096 32.7812 525.502 32.5469C525.909 32.3125 526.203 32.0078 526.385 31.6328V29.8984H525.252C523.482 29.8984 522.596 30.4167 522.596 31.4531C522.596 31.9062 522.747 32.2604 523.049 32.5156C523.351 32.7708 523.739 32.8984 524.213 32.8984ZM532.477 23.5V25.5469H534.055V26.6641H532.477V31.9062C532.477 32.2448 532.548 32.5 532.688 32.6719C532.829 32.8385 533.068 32.9219 533.407 32.9219C533.574 32.9219 533.803 32.8906 534.094 32.8281V34C533.714 34.1042 533.344 34.1562 532.985 34.1562C532.339 34.1562 531.852 33.9609 531.524 33.5703C531.196 33.1797 531.032 32.625 531.032 31.9062V26.6641H529.493V25.5469H531.032V23.5H532.477ZM535.632 29.6953C535.632 28.8672 535.793 28.1224 536.116 27.4609C536.444 26.7995 536.897 26.2891 537.475 25.9297C538.059 25.5703 538.723 25.3906 539.467 25.3906C540.619 25.3906 541.548 25.7891 542.257 26.5859C542.97 27.3828 543.327 28.4427 543.327 29.7656V29.8672C543.327 30.6901 543.168 31.4297 542.85 32.0859C542.538 32.737 542.087 33.2448 541.499 33.6094C540.915 33.974 540.244 34.1562 539.483 34.1562C538.337 34.1562 537.408 33.7578 536.694 32.9609C535.986 32.1641 535.632 31.1094 535.632 29.7969V29.6953ZM537.085 29.8672C537.085 30.8047 537.301 31.5573 537.733 32.125C538.171 32.6927 538.754 32.9766 539.483 32.9766C540.217 32.9766 540.801 32.6901 541.233 32.1172C541.665 31.5391 541.882 30.7318 541.882 29.6953C541.882 28.7682 541.66 28.0182 541.217 27.4453C540.78 26.8672 540.197 26.5781 539.467 26.5781C538.754 26.5781 538.178 26.862 537.741 27.4297C537.303 27.9974 537.085 28.8099 537.085 29.8672ZM549.645 26.8438C549.427 26.8073 549.19 26.7891 548.934 26.7891C547.986 26.7891 547.343 27.1927 547.005 28V34H545.559V25.5469H546.966L546.989 26.5234C547.463 25.7682 548.135 25.3906 549.005 25.3906C549.286 25.3906 549.499 25.4271 549.645 25.5V26.8438ZM556.323 31.7578C556.323 31.3672 556.175 31.0651 555.878 30.8516C555.586 30.6328 555.073 30.4453 554.339 30.2891C553.61 30.1328 553.029 29.9453 552.597 29.7266C552.169 29.5078 551.852 29.2474 551.643 28.9453C551.44 28.6432 551.339 28.2839 551.339 27.8672C551.339 27.1745 551.63 26.5885 552.214 26.1094C552.802 25.6302 553.552 25.3906 554.464 25.3906C555.422 25.3906 556.198 25.638 556.792 26.1328C557.391 26.6276 557.69 27.2604 557.69 28.0312H556.237C556.237 27.6354 556.068 27.2943 555.729 27.0078C555.396 26.7214 554.974 26.5781 554.464 26.5781C553.938 26.5781 553.526 26.6927 553.229 26.9219C552.933 27.151 552.784 27.4505 552.784 27.8203C552.784 28.1693 552.922 28.4323 553.198 28.6094C553.474 28.7865 553.972 28.9557 554.69 29.1172C555.414 29.2786 556 29.4714 556.448 29.6953C556.896 29.9193 557.227 30.1901 557.44 30.5078C557.659 30.8203 557.768 31.2031 557.768 31.6562C557.768 32.4115 557.466 33.0182 556.862 33.4766C556.258 33.9297 555.474 34.1562 554.511 34.1562C553.834 34.1562 553.235 34.0365 552.714 33.7969C552.193 33.5573 551.784 33.224 551.487 32.7969C551.196 32.3646 551.05 31.8984 551.05 31.3984H552.495C552.521 31.8828 552.714 32.2682 553.073 32.5547C553.438 32.8359 553.917 32.9766 554.511 32.9766C555.058 32.9766 555.495 32.8672 555.823 32.6484C556.156 32.4245 556.323 32.1276 556.323 31.7578Z" fill="black"/>
<path d="M20.5159 37.4742C18.6434 37.4742 17.1254 35.9659 17.1254 34.1054V20.2532C17.1254 20.1134 17.2395 20 17.3803 20H20.1525C20.3532 20 20.5159 20.1617 20.5159 20.3611V37.4742Z" fill="black"/>
<path fill-rule="evenodd" clip-rule="evenodd" d="M35.2709 37.1131C35.2709 37.3125 35.1082 37.4742 34.9075 37.4742H32.2682C32.0675 37.4742 31.9048 37.3125 31.9048 37.1131V36.1897C31.5877 36.6744 31.0755 37.0379 30.3925 37.3045C29.7339 37.5711 29.1241 37.6923 28.5875 37.6923C27.0508 37.6923 25.7093 37.1591 24.5385 36.0685C23.3677 34.9779 22.7822 33.5479 22.7822 31.803C22.7822 30.058 23.3677 28.6523 24.5385 27.5616C25.7093 26.471 27.0508 25.9136 28.5875 25.9136C29.6608 25.9136 31.1243 26.3256 31.9048 27.4162V26.517C31.9048 26.3176 32.0675 26.1559 32.2682 26.1559H34.9075C35.1082 26.1559 35.2709 26.3176 35.2709 26.517V37.1131ZM27.1484 33.7418C27.7338 34.2508 28.3924 34.4932 29.1485 34.4932C30.6121 34.4932 31.9048 33.4268 31.9048 31.803C31.9048 30.1791 30.6121 29.1127 29.1485 29.1127C28.3924 29.1127 27.7338 29.3793 27.1484 29.8883C26.5874 30.3973 26.2947 31.0274 26.2947 31.803C26.2947 32.5785 26.5874 33.2329 27.1484 33.7418Z" fill="black"/>
<path d="M42.6911 33.1844C43.496 33.4025 43.8131 33.6691 43.8131 34.1538C43.8131 34.7113 43.2033 35.0748 42.4228 35.0991C41.6737 35.0991 41.0255 34.665 40.8128 34.1294C40.7409 33.9485 40.5847 33.7903 40.3891 33.7903H37.9397C37.7361 33.7903 37.5705 33.9569 37.5912 34.1582C37.6962 35.1791 38.1568 36.0213 39.0079 36.6502C39.9592 37.353 41.0812 37.6923 42.3252 37.6923C43.6424 37.6923 44.7888 37.3772 45.7645 36.7713C46.7646 36.1654 47.2524 35.2929 47.2524 34.1538C47.2524 33.4752 47.1548 32.8451 46.1548 31.8999C45.6669 31.4394 45.0083 31.0759 44.1546 30.8577L42.2277 30.3488C41.5935 30.1791 41.252 29.9125 41.2276 29.5005C41.2032 28.9916 41.6666 28.6523 42.4228 28.6523C43.1125 28.6523 43.5156 28.8737 43.6579 29.3038C43.719 29.4883 43.8703 29.6459 44.0658 29.6459H46.5406C46.744 29.6459 46.9094 29.4797 46.8911 29.2785C46.7916 28.1796 46.3347 27.3569 45.5206 26.8103C44.6181 26.2044 43.5204 25.8894 42.2277 25.8894C41.0324 25.8894 40.008 26.2287 39.1299 26.883C38.2518 27.5374 37.8127 28.2645 37.7883 29.1127C37.7639 29.8156 37.8127 30.2034 38.1786 30.9789C38.5689 31.7302 39.6177 32.3846 41.2032 32.7966L42.6911 33.1844Z" fill="black"/>
<path d="M54.8851 34.1538C54.8851 33.6691 54.568 33.4025 53.7631 33.1844L52.2752 32.7966C50.6897 32.3846 49.6408 31.7302 49.2506 30.9789C48.8847 30.2034 48.8359 29.8156 48.8603 29.1127C48.8847 28.2645 49.3237 27.5374 50.2019 26.883C51.08 26.2287 52.1044 25.8894 53.2996 25.8894C54.5924 25.8894 55.69 26.2044 56.5925 26.8103C57.4067 27.3569 57.8635 28.1796 57.9631 29.2785C57.9813 29.4797 57.8159 29.6459 57.6125 29.6459H55.1377C54.9423 29.6459 54.791 29.4883 54.7299 29.3038C54.5876 28.8737 54.1844 28.6523 53.4948 28.6523C52.7386 28.6523 52.2752 28.9916 52.2996 29.5005C52.324 29.9125 52.6654 30.1791 53.2996 30.3488L55.2266 30.8577C56.0803 31.0759 56.7389 31.4394 57.2267 31.8999C58.2268 32.8451 58.3244 33.4752 58.3244 34.1538C58.3244 35.2929 57.8365 36.1654 56.8365 36.7713C55.8608 37.3772 54.7144 37.6923 53.3972 37.6923C52.1532 37.6923 51.0312 37.353 50.0799 36.6502C49.2288 36.0213 48.7682 35.1791 48.6631 34.1582C48.6424 33.9569 48.8081 33.7903 49.0117 33.7903H51.461C51.6567 33.7903 51.8129 33.9485 51.8847 34.1294C52.0975 34.665 52.7457 35.0991 53.4948 35.0991C54.2753 35.0748 54.8851 34.7113 54.8851 34.1538Z" fill="black"/>
<path d="M65.992 25.9136C64.309 25.9136 62.8455 26.471 61.6259 27.5616C60.4063 28.6523 59.7965 30.058 59.7965 31.7787C59.7965 33.4995 60.4063 34.9294 61.6259 36.0443C62.8455 37.1591 64.309 37.7165 65.992 37.7165C67.909 37.7165 69.6339 36.9316 70.727 35.58C70.8522 35.4252 70.8119 35.2003 70.6489 35.0856L68.497 33.5719C68.3281 33.4531 68.0957 33.5005 67.961 33.6564C67.4833 34.2092 66.827 34.4932 65.992 34.4932C65.2359 34.4932 64.5773 34.2508 64.0163 33.7418C63.4553 33.2329 63.1626 32.5785 63.1626 31.7787C63.1626 31.0032 63.4553 30.373 64.0163 29.8883C64.5773 29.3793 65.2359 29.137 65.992 29.137C66.8261 29.137 67.482 29.4204 67.9595 29.9721C68.095 30.1285 68.3287 30.1754 68.4975 30.0552L70.6487 28.523C70.8117 28.4069 70.8501 28.1808 70.7231 28.0268C69.61 26.6776 67.8865 25.9136 65.992 25.9136Z" fill="black"/>
<path fill-rule="evenodd" clip-rule="evenodd" d="M84.7625 37.0889C84.7625 37.2883 84.5998 37.4499 84.3991 37.4499H81.7599C81.5592 37.4499 81.3964 37.2883 81.3964 37.0889V36.1654C81.0793 36.6502 80.5671 37.0137 79.8841 37.2803C79.2256 37.5469 78.6158 37.6681 78.0791 37.6681C76.5425 37.6681 75.2009 37.1349 74.0301 36.0443C72.8593 34.9536 72.2739 33.5237 72.2739 31.7787C72.2739 30.0337 72.8593 28.628 74.0301 27.5374C75.2009 26.4468 76.5425 25.8894 78.0791 25.8894C79.1524 25.8894 80.6159 26.3014 81.3964 27.392V26.4928C81.3964 26.2934 81.5592 26.1317 81.7599 26.1317H84.3991C84.5998 26.1317 84.7625 26.2934 84.7625 26.4928V37.0889ZM76.64 33.7176C77.2254 34.2266 77.884 34.4689 78.6401 34.4689C80.1037 34.4689 81.3964 33.4025 81.3964 31.7787C81.3964 30.1549 80.1037 29.0885 78.6401 29.0885C77.884 29.0885 77.2254 29.3551 76.64 29.8641C76.079 30.373 75.7863 31.0032 75.7863 31.7787C75.7863 32.5543 76.079 33.2086 76.64 33.7176Z" fill="black"/>
<path d="M99.7109 29.1855C100.784 29.1855 101.589 30.0095 101.589 31.4394V37.1131C101.589 37.3125 101.752 37.4742 101.952 37.4742H104.592C104.792 37.4742 104.955 37.3125 104.955 37.1131V31.0516C104.955 27.6828 103.321 25.9136 100.565 25.9136C99.1255 25.9136 97.9791 26.5922 97.1497 27.9252C96.5155 26.5922 95.296 25.9378 93.491 25.9378C92.2226 25.9378 91.0274 26.6407 90.5151 27.804V26.517C90.5151 26.3176 90.3524 26.1559 90.1517 26.1559H87.4881C87.2874 26.1559 87.1247 26.3176 87.1247 26.517V37.1131C87.1247 37.3125 87.2874 37.4742 87.4881 37.4742H90.1517C90.3524 37.4742 90.5151 37.3125 90.5151 37.1131V31.4879C90.5151 29.8641 91.3445 29.1855 92.4909 29.1855C93.5397 29.1855 94.3447 30.0095 94.3691 31.3667V37.1131C94.3691 37.3125 94.5318 37.4742 94.7325 37.4742H97.3961C97.5968 37.4742 97.7595 37.3125 97.7595 37.1131V31.4879C97.7595 29.9368 98.5401 29.1855 99.7109 29.1855Z" fill="black"/>
<path fill-rule="evenodd" clip-rule="evenodd" d="M110.524 43C108.688 43 107.201 41.5218 107.201 39.6983V26.348C107.201 26.2285 107.298 26.1317 107.418 26.1317H110.203C110.404 26.1317 110.567 26.2934 110.567 26.4928V27.5374C111.128 26.4953 112.445 25.8894 113.908 25.8894C115.421 25.8894 116.714 26.4468 117.787 27.5374C118.884 28.628 119.421 30.0337 119.421 31.7545C119.421 33.5237 118.884 34.9536 117.787 36.0443C116.714 37.1349 115.421 37.6923 113.908 37.6923C112.445 37.6923 111.128 37.0622 110.567 36.0685V42.9571C110.567 42.9808 110.547 43 110.524 43ZM113.274 29.0885C111.811 29.0885 110.64 30.2518 110.64 31.8272C110.64 33.4752 111.811 34.5174 113.274 34.5174C114.738 34.5174 115.909 33.4025 115.909 31.8272C115.909 30.2034 114.738 29.0885 113.274 29.0885Z" fill="black"/>
<path d="M12.4834 32.4269C12.6082 32.2693 12.835 32.2269 13.0007 32.3412L15.1228 33.8065C15.2845 33.9181 15.328 34.1381 15.2123 34.2965C13.7846 36.2515 11.4427 37.4569 8.74517 37.4569C6.4918 37.4569 4.60633 36.6802 3.06576 35.1037C1.54819 33.5273 0.789398 31.6311 0.789398 29.3921C0.789398 27.1303 1.54819 25.234 3.06576 23.6576C4.60633 22.0812 6.4918 21.3044 8.74517 21.3044C11.37 21.3044 13.7034 22.4828 15.132 24.348C15.2534 24.5065 15.2108 24.7314 15.0458 24.8444L12.9085 26.3077C12.7428 26.4212 12.5167 26.3781 12.3931 26.2203C11.4729 25.0449 10.2569 24.4572 8.74517 24.4572C7.43454 24.4572 6.35384 24.937 5.48009 25.8965C4.60633 26.8333 4.16945 27.9984 4.16945 29.3921C4.16945 30.7629 4.60633 31.9281 5.48009 32.8876C6.35384 33.8243 7.43454 34.3041 8.74517 34.3041C10.2519 34.3041 11.5823 33.5646 12.4834 32.4269Z" fill="black"/>
</svg>
